<svg width="17" height="16" viewBox="0 0 17 16" fill="none" xmlns="http://www.w3.org/2000/svg">
<path fill-rule="evenodd" clip-rule="evenodd" d="M14.4706 5.08249L14.0556 4.36243C13.7046 3.75315 12.9266 3.54296 12.3165 3.89256C12.026 4.06364 11.6795 4.11218 11.3533 4.02747C11.027 3.94276 10.7478 3.73176 10.5773 3.441C10.4677 3.25618 10.4087 3.04568 10.4065 2.83077C10.4164 2.48623 10.2864 2.15235 10.0461 1.90519C9.80587 1.65804 9.4758 1.51866 9.13112 1.5188H8.29511C7.95742 1.5188 7.63366 1.65336 7.39545 1.89271C7.15724 2.13207 7.02423 2.45648 7.02585 2.79416C7.01584 3.49136 6.44777 4.05129 5.75049 4.05122C5.53559 4.04898 5.32508 3.99004 5.14027 3.88035C4.53015 3.53076 3.75219 3.74094 3.40114 4.35023L2.95568 5.08249C2.60505 5.69101 2.81238 6.46849 3.41945 6.82162C3.81405 7.04944 4.05713 7.47047 4.05713 7.92612C4.05713 8.38177 3.81405 8.8028 3.41945 9.03062C2.81315 9.38137 2.6056 10.157 2.95568 10.7636L3.37673 11.4898C3.54121 11.7866 3.81718 12.0056 4.14358 12.0984C4.46997 12.1911 4.81987 12.15 5.11586 11.9841C5.40683 11.8143 5.75357 11.7678 6.07901 11.8549C6.40444 11.942 6.6816 12.1554 6.84889 12.4479C6.95858 12.6327 7.01752 12.8432 7.01975 13.0581C7.01975 13.7624 7.59075 14.3334 8.29511 14.3334H9.13112C9.8331 14.3335 10.4031 13.7662 10.4065 13.0642C10.4048 12.7254 10.5387 12.4001 10.7782 12.1606C11.0178 11.921 11.3431 11.7872 11.6818 11.7888C11.8962 11.7946 12.1059 11.8533 12.2921 11.9597C12.9006 12.3103 13.6781 12.103 14.0312 11.4959L14.4706 10.7636C14.6406 10.4717 14.6873 10.1241 14.6002 9.79766C14.5132 9.47124 14.2996 9.19298 14.0068 9.02452C13.714 8.85605 13.5004 8.5778 13.4133 8.25138C13.3263 7.92495 13.373 7.57729 13.543 7.28539C13.6536 7.0923 13.8137 6.93221 14.0068 6.82162C14.6102 6.46868 14.8171 5.69574 14.4706 5.08859V5.08249Z" stroke="#FFFCF1" stroke-width="1.5" stroke-linecap="round" stroke-linejoin="round"/>
<circle cx="8.71642" cy="7.92614" r="1.75744" stroke="#FFFCF1" stroke-width="1.5" stroke-linecap="round" stroke-linejoin="round"/>
</svg>
