<svg width="259" height="155" viewBox="0 0 259 155" fill="none" xmlns="http://www.w3.org/2000/svg">
<rect x="78.3379" y="1.22534" width="23.2113" height="23.2113" rx="4.35211" fill="#868BF1"/>
<rect x="104.451" y="1.22534" width="23.2113" height="23.2113" rx="4.35211" fill="#868BF1"/>
<rect x="130.562" y="1.22534" width="23.2113" height="23.2113" rx="4.35211" fill="#868BF1"/>
<rect x="156.676" y="1.22534" width="23.2113" height="23.2113" rx="4.35211" fill="#868BF1"/>
<rect x="182.789" y="1.22534" width="23.2113" height="23.2113" rx="4.35211" fill="#868BF1"/>
<rect x="208.902" y="1.22534" width="23.2113" height="23.2113" rx="4.35211" fill="#868BF1"/>
<rect x="235.014" y="1.22534" width="23.2113" height="23.2113" rx="4.35211" fill="#868BF1"/>
<rect x="78.3379" y="27.3381" width="23.2113" height="23.2113" rx="4.35211" fill="#868BF1"/>
<rect x="104.451" y="27.3381" width="23.2113" height="23.2113" rx="4.35211" fill="#868BF1"/>
<rect x="130.562" y="27.3381" width="23.2113" height="23.2113" rx="4.35211" fill="#868BF1"/>
<rect x="156.676" y="27.3381" width="23.2113" height="23.2113" rx="4.35211" fill="#868BF1"/>
<rect x="182.789" y="27.3381" width="23.2113" height="23.2113" rx="4.35211" fill="#868BF1"/>
<rect x="208.902" y="27.3381" width="23.2113" height="23.2113" rx="4.35211" fill="#868BF1"/>
<rect x="235.014" y="27.3381" width="23.2113" height="23.2113" rx="4.35211" fill="#868BF1"/>
<rect x="78.3379" y="53.4507" width="23.2113" height="23.2113" rx="4.35211" fill="#868BF1"/>
<rect x="104.451" y="53.4507" width="23.2113" height="23.2113" rx="4.35211" fill="#868BF1"/>
<rect x="130.562" y="53.4507" width="23.2113" height="23.2113" rx="4.35211" fill="#868BF1"/>
<rect x="156.676" y="53.4507" width="23.2113" height="23.2113" rx="4.35211" fill="#868BF1"/>
<rect x="182.789" y="53.4507" width="23.2113" height="23.2113" rx="4.35211" fill="#FFFCF1"/>
<rect x="208.902" y="53.4507" width="23.2113" height="23.2113" rx="4.35211" fill="#868BF1"/>
<rect x="235.014" y="53.4507" width="23.2113" height="23.2113" rx="4.35211" fill="#868BF1"/>
<rect x="78.3379" y="79.5635" width="23.2113" height="23.2113" rx="4.35211" fill="#868BF1"/>
<rect x="104.451" y="79.5635" width="23.2113" height="23.2113" rx="4.35211" fill="#FFFCF1"/>
<rect x="156.676" y="79.5635" width="23.2113" height="23.2113" rx="4.35211" fill="#868BF1"/>
<rect x="182.789" y="79.5635" width="23.2113" height="23.2113" rx="4.35211" fill="#868BF1"/>
<rect x="208.902" y="79.5635" width="23.2113" height="23.2113" rx="4.35211" fill="#868BF1"/>
<rect x="235.014" y="79.5635" width="23.2113" height="23.2113" rx="4.35211" fill="#868BF1"/>
<rect x="104.451" y="105.676" width="23.2113" height="23.2113" rx="4.35211" fill="#868BF1"/>
<rect y="27.3381" width="23.2113" height="23.2113" rx="4.35211" fill="#868BF1"/>
<rect x="26.1133" y="27.3381" width="23.2113" height="23.2113" rx="4.35211" fill="#868BF1"/>
<rect x="52.2246" y="27.3381" width="23.2113" height="23.2113" rx="4.35211" fill="#868BF1"/>
<rect y="53.4507" width="23.2113" height="23.2113" rx="4.35211" fill="#868BF1"/>
<rect x="26.1133" y="53.4507" width="23.2113" height="23.2113" rx="4.35211" fill="#868BF1"/>
<rect x="52.2246" y="53.4507" width="23.2113" height="23.2113" rx="4.35211" fill="#868BF1"/>
<rect x="26.1133" y="79.5635" width="23.2113" height="23.2113" rx="4.35211" fill="#868BF1"/>
<rect x="156.676" y="105.676" width="23.2113" height="23.2113" rx="4.35211" fill="#868BF1"/>
<rect x="208.902" y="105.676" width="23.2113" height="23.2113" rx="4.35211" fill="#FFFCF1"/>
<rect x="235.014" y="105.676" width="23.2113" height="23.2113" rx="4.35211" fill="#868BF1"/>
<rect x="235.014" y="131.789" width="23.2113" height="23.2113" rx="4.35211" fill="#868BF1"/>
<rect x="156.676" y="131.789" width="23.2113" height="23.2113" rx="4.35211" fill="#FFFCF1"/>
</svg>
