<svg width="178" height="72" viewBox="0 0 178 72" fill="none" xmlns="http://www.w3.org/2000/svg">
<rect x="54" y="-15.9998" width="16" height="16" rx="3" fill="#868BF1"/>
<rect x="72" y="-15.9998" width="16" height="16" rx="3" fill="#868BF1"/>
<rect x="90" y="-15.9998" width="16" height="16" rx="3" fill="#868BF1"/>
<rect x="108" y="-15.9998" width="16" height="16" rx="3" fill="#868BF1"/>
<rect x="126" y="-15.9998" width="16" height="16" rx="3" fill="#868BF1"/>
<rect x="144" y="-15.9998" width="16" height="16" rx="3" fill="#868BF1"/>
<rect x="162" y="-15.9998" width="16" height="16" rx="3" fill="#868BF1"/>
<rect x="54" y="2.00018" width="16" height="16" rx="3" fill="#868BF1"/>
<rect x="72" y="2.00018" width="16" height="16" rx="3" fill="#868BF1"/>
<rect x="90" y="2.00018" width="16" height="16" rx="3" fill="#868BF1"/>
<rect x="108" y="2.00018" width="16" height="16" rx="3" fill="#868BF1"/>
<rect x="126" y="2.00018" width="16" height="16" rx="3" fill="#FFFCF1"/>
<rect x="144" y="2.00018" width="16" height="16" rx="3" fill="#868BF1"/>
<rect x="162" y="2.00018" width="16" height="16" rx="3" fill="#868BF1"/>
<rect x="54" y="20.0002" width="16" height="16" rx="3" fill="#868BF1"/>
<rect x="72" y="20.0002" width="16" height="16" rx="3" fill="#FFFCF1"/>
<rect x="108" y="20.0002" width="16" height="16" rx="3" fill="#868BF1"/>
<rect x="126" y="20.0002" width="16" height="16" rx="3" fill="#868BF1"/>
<rect x="144" y="20.0002" width="16" height="16" rx="3" fill="#868BF1"/>
<rect x="162" y="20.0002" width="16" height="16" rx="3" fill="#868BF1"/>
<rect x="72" y="38.0002" width="16" height="16" rx="3" fill="#868BF1"/>
<rect y="-15.9998" width="16" height="16" rx="3" fill="#868BF1"/>
<rect x="18" y="-15.9998" width="16" height="16" rx="3" fill="#868BF1"/>
<rect x="36" y="-15.9998" width="16" height="16" rx="3" fill="#868BF1"/>
<rect y="2.00018" width="16" height="16" rx="3" fill="#868BF1"/>
<rect x="18" y="2.00018" width="16" height="16" rx="3" fill="#868BF1"/>
<rect x="36" y="2.00018" width="16" height="16" rx="3" fill="#868BF1"/>
<rect x="18" y="20.0002" width="16" height="16" rx="3" fill="#868BF1"/>
<rect x="108" y="38.0002" width="16" height="16" rx="3" fill="#868BF1"/>
<rect x="144" y="38.0002" width="16" height="16" rx="3" fill="#FFFCF1"/>
<rect x="162" y="38.0002" width="16" height="16" rx="3" fill="#868BF1"/>
<rect x="162" y="56.0002" width="16" height="16" rx="3" fill="#868BF1"/>
<rect x="108" y="56.0002" width="16" height="16" rx="3" fill="#FFFCF1"/>
</svg>
