<svg width="165" height="27" viewBox="0 0 165 27" fill="none" xmlns="http://www.w3.org/2000/svg">
<path d="M28.4 21V6.6H32.99C33.11 6.6 33.3467 6.60333 33.7 6.61C34.06 6.61667 34.4067 6.64 34.74 6.68C35.88 6.82667 36.8433 7.23333 37.63 7.9C38.4233 8.56 39.0233 9.40333 39.43 10.43C39.8367 11.4567 40.04 12.58 40.04 13.8C40.04 15.02 39.8367 16.1433 39.43 17.17C39.0233 18.1967 38.4233 19.0433 37.63 19.71C36.8433 20.37 35.88 20.7733 34.74 20.92C34.4133 20.96 34.07 20.9833 33.71 20.99C33.35 20.9967 33.11 21 32.99 21H28.4ZM30.85 18.73H32.99C33.19 18.73 33.4433 18.7233 33.75 18.71C34.0633 18.6967 34.34 18.6667 34.58 18.62C35.26 18.4933 35.8133 18.19 36.24 17.71C36.6667 17.23 36.98 16.6467 37.18 15.96C37.3867 15.2733 37.49 14.5533 37.49 13.8C37.49 13.02 37.3867 12.2867 37.18 11.6C36.9733 10.9133 36.6533 10.3367 36.22 9.87C35.7933 9.40333 35.2467 9.10667 34.58 8.98C34.34 8.92667 34.0633 8.89667 33.75 8.89C33.4433 8.87667 33.19 8.87 32.99 8.87H30.85V18.73ZM45.4239 21.3C44.6439 21.3 43.9839 21.1533 43.4439 20.86C42.9039 20.56 42.4939 20.1633 42.2139 19.67C41.9406 19.1767 41.8039 18.6333 41.8039 18.04C41.8039 17.52 41.8906 17.0533 42.0639 16.64C42.2372 16.22 42.5039 15.86 42.8639 15.56C43.2239 15.2533 43.6906 15.0033 44.2639 14.81C44.6972 14.67 45.2039 14.5433 45.7839 14.43C46.3706 14.3167 47.0039 14.2133 47.6839 14.12C48.3706 14.02 49.0872 13.9133 49.8339 13.8L48.9739 14.29C48.9806 13.5433 48.8139 12.9933 48.4739 12.64C48.1339 12.2867 47.5606 12.11 46.7539 12.11C46.2672 12.11 45.7972 12.2233 45.3439 12.45C44.8906 12.6767 44.5739 13.0667 44.3939 13.62L42.1939 12.93C42.4606 12.0167 42.9672 11.2833 43.7139 10.73C44.4672 10.1767 45.4806 9.9 46.7539 9.9C47.7139 9.9 48.5572 10.0567 49.2839 10.37C50.0172 10.6833 50.5606 11.1967 50.9139 11.91C51.1072 12.29 51.2239 12.68 51.2639 13.08C51.3039 13.4733 51.3239 13.9033 51.3239 14.37V21H49.2139V18.66L49.5639 19.04C49.0772 19.82 48.5072 20.3933 47.8539 20.76C47.2072 21.12 46.3972 21.3 45.4239 21.3ZM45.9039 19.38C46.4506 19.38 46.9172 19.2833 47.3039 19.09C47.6906 18.8967 47.9972 18.66 48.2239 18.38C48.4572 18.1 48.6139 17.8367 48.6939 17.59C48.8206 17.2833 48.8906 16.9333 48.9039 16.54C48.9239 16.14 48.9339 15.8167 48.9339 15.57L49.6739 15.79C48.9472 15.9033 48.3239 16.0033 47.8039 16.09C47.2839 16.1767 46.8372 16.26 46.4639 16.34C46.0906 16.4133 45.7606 16.4967 45.4739 16.59C45.1939 16.69 44.9572 16.8067 44.7639 16.94C44.5706 17.0733 44.4206 17.2267 44.3139 17.4C44.2139 17.5733 44.1639 17.7767 44.1639 18.01C44.1639 18.2767 44.2306 18.5133 44.3639 18.72C44.4972 18.92 44.6906 19.08 44.9439 19.2C45.2039 19.32 45.5239 19.38 45.9039 19.38ZM54.7419 25.8L56.8219 20.09L56.8619 21.77L52.1519 10.2H54.6619L58.0019 18.76H57.3619L60.6119 10.2H63.0219L57.0019 25.8H54.7419ZM70.6033 21.3C69.1633 21.3 67.9299 20.9867 66.9033 20.36C65.8766 19.7267 65.0866 18.8467 64.5333 17.72C63.9866 16.5933 63.7133 15.2867 63.7133 13.8C63.7133 12.3133 63.9866 11.0067 64.5333 9.88C65.0866 8.75333 65.8766 7.87667 66.9033 7.25C67.9299 6.61667 69.1633 6.3 70.6033 6.3C72.2633 6.3 73.6466 6.71667 74.7533 7.55C75.8599 8.37667 76.6366 9.49333 77.0833 10.9L74.6533 11.57C74.3733 10.63 73.8966 9.89667 73.2233 9.37C72.5499 8.83667 71.6766 8.57 70.6033 8.57C69.6366 8.57 68.8299 8.78667 68.1833 9.22C67.5433 9.65333 67.0599 10.2633 66.7333 11.05C66.4133 11.83 66.2499 12.7467 66.2433 13.8C66.2433 14.8533 66.4033 15.7733 66.7233 16.56C67.0499 17.34 67.5366 17.9467 68.1833 18.38C68.8299 18.8133 69.6366 19.03 70.6033 19.03C71.6766 19.03 72.5499 18.7633 73.2233 18.23C73.8966 17.6967 74.3733 16.9633 74.6533 16.03L77.0833 16.7C76.6366 18.1067 75.8599 19.2267 74.7533 20.06C73.6466 20.8867 72.2633 21.3 70.6033 21.3ZM82.2989 21.3C81.5189 21.3 80.8589 21.1533 80.3189 20.86C79.7789 20.56 79.3689 20.1633 79.0889 19.67C78.8156 19.1767 78.6789 18.6333 78.6789 18.04C78.6789 17.52 78.7656 17.0533 78.9389 16.64C79.1122 16.22 79.3789 15.86 79.7389 15.56C80.0989 15.2533 80.5656 15.0033 81.1389 14.81C81.5722 14.67 82.0789 14.5433 82.6589 14.43C83.2456 14.3167 83.8789 14.2133 84.5589 14.12C85.2456 14.02 85.9622 13.9133 86.7089 13.8L85.8489 14.29C85.8556 13.5433 85.6889 12.9933 85.3489 12.64C85.0089 12.2867 84.4356 12.11 83.6289 12.11C83.1422 12.11 82.6722 12.2233 82.2189 12.45C81.7656 12.6767 81.4489 13.0667 81.2689 13.62L79.0689 12.93C79.3356 12.0167 79.8422 11.2833 80.5889 10.73C81.3422 10.1767 82.3556 9.9 83.6289 9.9C84.5889 9.9 85.4322 10.0567 86.1589 10.37C86.8922 10.6833 87.4356 11.1967 87.7889 11.91C87.9822 12.29 88.0989 12.68 88.1389 13.08C88.1789 13.4733 88.1989 13.9033 88.1989 14.37V21H86.0889V18.66L86.4389 19.04C85.9522 19.82 85.3822 20.3933 84.7289 20.76C84.0822 21.12 83.2722 21.3 82.2989 21.3ZM82.7789 19.38C83.3256 19.38 83.7922 19.2833 84.1789 19.09C84.5656 18.8967 84.8722 18.66 85.0989 18.38C85.3322 18.1 85.4889 17.8367 85.5689 17.59C85.6956 17.2833 85.7656 16.9333 85.7789 16.54C85.7989 16.14 85.8089 15.8167 85.8089 15.57L86.5489 15.79C85.8222 15.9033 85.1989 16.0033 84.6789 16.09C84.1589 16.1767 83.7122 16.26 83.3389 16.34C82.9656 16.4133 82.6356 16.4967 82.3489 16.59C82.0689 16.69 81.8322 16.8067 81.6389 16.94C81.4456 17.0733 81.2956 17.2267 81.1889 17.4C81.0889 17.5733 81.0389 17.7767 81.0389 18.01C81.0389 18.2767 81.1056 18.5133 81.2389 18.72C81.3722 18.92 81.5656 19.08 81.8189 19.2C82.0789 19.32 82.3989 19.38 82.7789 19.38ZM91.0023 21V6.3H93.4123V21H91.0023ZM101.098 21.3C99.9845 21.3 99.0345 21.0533 98.2478 20.56C97.4611 20.06 96.8578 19.38 96.4378 18.52C96.0245 17.66 95.8145 16.6867 95.8078 15.6C95.8145 14.4933 96.0311 13.5133 96.4578 12.66C96.8911 11.8 97.5045 11.1267 98.2978 10.64C99.0911 10.1467 100.034 9.9 101.128 9.9C102.354 9.9 103.391 10.21 104.238 10.83C105.091 11.4433 105.648 12.2833 105.908 13.35L103.508 14C103.321 13.42 103.011 12.97 102.578 12.65C102.144 12.3233 101.651 12.16 101.098 12.16C100.471 12.16 99.9545 12.31 99.5478 12.61C99.1411 12.9033 98.8411 13.31 98.6478 13.83C98.4545 14.35 98.3578 14.94 98.3578 15.6C98.3578 16.6267 98.5878 17.4567 99.0478 18.09C99.5078 18.7233 100.191 19.04 101.098 19.04C101.738 19.04 102.241 18.8933 102.608 18.6C102.981 18.3067 103.261 17.8833 103.448 17.33L105.908 17.88C105.574 18.98 104.991 19.8267 104.158 20.42C103.324 21.0067 102.304 21.3 101.098 21.3ZM111.962 21.31C111.162 21.31 110.502 21.1767 109.982 20.91C109.462 20.6433 109.048 20.3033 108.742 19.89C108.435 19.4767 108.208 19.0367 108.062 18.57C107.915 18.1033 107.818 17.6633 107.772 17.25C107.732 16.83 107.712 16.49 107.712 16.23V10.2H110.152V15.4C110.152 15.7333 110.175 16.11 110.222 16.53C110.268 16.9433 110.375 17.3433 110.542 17.73C110.715 18.11 110.968 18.4233 111.302 18.67C111.642 18.9167 112.098 19.04 112.672 19.04C112.978 19.04 113.282 18.99 113.582 18.89C113.882 18.79 114.152 18.62 114.392 18.38C114.638 18.1333 114.835 17.7967 114.982 17.37C115.128 16.9433 115.202 16.4033 115.202 15.75L116.632 16.36C116.632 17.28 116.452 18.1133 116.092 18.86C115.738 19.6067 115.215 20.2033 114.522 20.65C113.828 21.09 112.975 21.31 111.962 21.31ZM115.492 21V17.65H115.202V10.2H117.622V21H115.492ZM120.631 21V6.3H123.041V21H120.631ZM129.057 21.3C128.277 21.3 127.617 21.1533 127.077 20.86C126.537 20.56 126.127 20.1633 125.847 19.67C125.573 19.1767 125.437 18.6333 125.437 18.04C125.437 17.52 125.523 17.0533 125.697 16.64C125.87 16.22 126.137 15.86 126.497 15.56C126.857 15.2533 127.323 15.0033 127.897 14.81C128.33 14.67 128.837 14.5433 129.417 14.43C130.003 14.3167 130.637 14.2133 131.317 14.12C132.003 14.02 132.72 13.9133 133.467 13.8L132.607 14.29C132.613 13.5433 132.447 12.9933 132.107 12.64C131.767 12.2867 131.193 12.11 130.387 12.11C129.9 12.11 129.43 12.2233 128.977 12.45C128.523 12.6767 128.207 13.0667 128.027 13.62L125.827 12.93C126.093 12.0167 126.6 11.2833 127.347 10.73C128.1 10.1767 129.113 9.9 130.387 9.9C131.347 9.9 132.19 10.0567 132.917 10.37C133.65 10.6833 134.193 11.1967 134.547 11.91C134.74 12.29 134.857 12.68 134.897 13.08C134.937 13.4733 134.957 13.9033 134.957 14.37V21H132.847V18.66L133.197 19.04C132.71 19.82 132.14 20.3933 131.487 20.76C130.84 21.12 130.03 21.3 129.057 21.3ZM129.537 19.38C130.083 19.38 130.55 19.2833 130.937 19.09C131.323 18.8967 131.63 18.66 131.857 18.38C132.09 18.1 132.247 17.8367 132.327 17.59C132.453 17.2833 132.523 16.9333 132.537 16.54C132.557 16.14 132.567 15.8167 132.567 15.57L133.307 15.79C132.58 15.9033 131.957 16.0033 131.437 16.09C130.917 16.1767 130.47 16.26 130.097 16.34C129.723 16.4133 129.393 16.4967 129.107 16.59C128.827 16.69 128.59 16.8067 128.397 16.94C128.203 17.0733 128.053 17.2267 127.947 17.4C127.847 17.5733 127.797 17.7767 127.797 18.01C127.797 18.2767 127.863 18.5133 127.997 18.72C128.13 18.92 128.323 19.08 128.577 19.2C128.837 19.32 129.157 19.38 129.537 19.38ZM143.89 21C143.177 21.1333 142.477 21.19 141.79 21.17C141.11 21.1567 140.5 21.0333 139.96 20.8C139.42 20.56 139.01 20.1833 138.73 19.67C138.483 19.2033 138.353 18.7267 138.34 18.24C138.327 17.7533 138.32 17.2033 138.32 16.59V7.2H140.72V16.45C140.72 16.8833 140.723 17.2633 140.73 17.59C140.743 17.9167 140.813 18.1833 140.94 18.39C141.18 18.79 141.563 19.0133 142.09 19.06C142.617 19.1067 143.217 19.08 143.89 18.98V21ZM136.36 12.09V10.2H143.89V12.09H136.36ZM150.436 21.3C149.356 21.3 148.412 21.0567 147.606 20.57C146.799 20.0833 146.172 19.4133 145.726 18.56C145.286 17.7 145.066 16.7133 145.066 15.6C145.066 14.4667 145.292 13.4733 145.746 12.62C146.199 11.7667 146.829 11.1 147.636 10.62C148.442 10.14 149.376 9.9 150.436 9.9C151.522 9.9 152.469 10.1433 153.276 10.63C154.082 11.1167 154.709 11.79 155.156 12.65C155.602 13.5033 155.826 14.4867 155.826 15.6C155.826 16.72 155.599 17.71 155.146 18.57C154.699 19.4233 154.072 20.0933 153.266 20.58C152.459 21.06 151.516 21.3 150.436 21.3ZM150.436 19.04C151.396 19.04 152.109 18.72 152.576 18.08C153.042 17.44 153.276 16.6133 153.276 15.6C153.276 14.5533 153.039 13.72 152.566 13.1C152.092 12.4733 151.382 12.16 150.436 12.16C149.789 12.16 149.256 12.3067 148.836 12.6C148.422 12.8867 148.116 13.29 147.916 13.81C147.716 14.3233 147.616 14.92 147.616 15.6C147.616 16.6467 147.852 17.4833 148.326 18.11C148.806 18.73 149.509 19.04 150.436 19.04ZM158.029 21V10.2H160.159V12.83L159.899 12.49C160.032 12.13 160.209 11.8033 160.429 11.51C160.656 11.21 160.926 10.9633 161.239 10.77C161.506 10.59 161.799 10.45 162.119 10.35C162.446 10.2433 162.779 10.18 163.119 10.16C163.459 10.1333 163.789 10.1467 164.109 10.2V12.45C163.789 12.3567 163.419 12.3267 162.999 12.36C162.586 12.3933 162.212 12.51 161.879 12.71C161.546 12.89 161.272 13.12 161.059 13.4C160.852 13.68 160.699 14 160.599 14.36C160.499 14.7133 160.449 15.0967 160.449 15.51V21H158.029Z" fill="#161616"/>
<rect x="1.66666" y="6.5" width="16.6667" height="15.8333" rx="3" stroke="black" stroke-width="2"/>
<path d="M5.83334 4.83333V6.5" stroke="black" stroke-width="2" stroke-linecap="round" stroke-linejoin="round"/>
<path d="M14.1667 4.83333V6.5" stroke="black" stroke-width="2" stroke-linecap="round" stroke-linejoin="round"/>
<path d="M1.66666 10.6667H18.3333" stroke="black" stroke-width="2" stroke-linecap="round" stroke-linejoin="round"/>
<path d="M6.25 14.8333H7.91667" stroke="black" stroke-width="2" stroke-linecap="round" stroke-linejoin="round"/>
<path d="M12.0833 14.8333H13.75" stroke="black" stroke-width="2" stroke-linecap="round" stroke-linejoin="round"/>
<path d="M6.25 18.1667H7.91667" stroke="black" stroke-width="2" stroke-linecap="round" stroke-linejoin="round"/>
<path d="M12.0833 18.1667H13.75" stroke="black" stroke-width="2" stroke-linecap="round" stroke-linejoin="round"/>
</svg>
