<svg width="26" height="26" viewBox="0 0 26 26" fill="none" xmlns="http://www.w3.org/2000/svg">
<path d="M25 9V7C25 3.68629 22.3137 1 19 1H17M1 9V7C1 3.68629 3.68629 1 7 1H10M17 25H19C22.3137 25 25 22.3137 25 19V17M9 25H7C3.68629 25 1 22.3137 1 19V17" stroke="#161616" stroke-width="2" stroke-linecap="round"/>
<rect x="7.16602" y="7.75" width="11.6667" height="11.0833" rx="3" stroke="#161616" stroke-width="1.8"/>
<path d="M10.084 6.58325V7.74992" stroke="#161616" stroke-width="1.8" stroke-linecap="round" stroke-linejoin="round"/>
<path d="M15.916 6.58325V7.74992" stroke="#161616" stroke-width="1.8" stroke-linecap="round" stroke-linejoin="round"/>
<path d="M7.16602 10.6667H18.8327" stroke="#161616" stroke-width="1.8" stroke-linecap="round" stroke-linejoin="round"/>
<path d="M10.375 13.5833H11.5417" stroke="#161616" stroke-width="1.8" stroke-linecap="round" stroke-linejoin="round"/>
<path d="M14.459 13.5833H15.6257" stroke="#161616" stroke-width="1.8" stroke-linecap="round" stroke-linejoin="round"/>
<path d="M10.375 15.9167H11.5417" stroke="#161616" stroke-width="1.8" stroke-linecap="round" stroke-linejoin="round"/>
<path d="M14.459 15.9167H15.6257" stroke="#161616" stroke-width="1.8" stroke-linecap="round" stroke-linejoin="round"/>
</svg>
