<svg width="20" height="20" viewBox="0 0 20 20" fill="none" xmlns="http://www.w3.org/2000/svg">
<path d="M16.8932 13.1799C16.384 14.4403 15.5742 15.5569 14.5344 16.4325C13.4946 17.3081 12.2564 17.9161 10.9277 18.2033C9.59909 18.4906 8.22034 18.4485 6.9117 18.0806C5.60307 17.7128 4.40428 17.0304 3.41988 16.093C2.43547 15.1555 1.69534 13.9915 1.26401 12.7024C0.832681 11.4133 0.723255 10.0382 0.945273 8.69714C1.16729 7.35604 1.71401 6.08961 2.53776 5.00828C3.36152 3.92695 4.43729 3.06356 5.67128 2.49337" stroke="#161616" stroke-width="1.5" stroke-linecap="round"/>
<path d="M13.189 1.52588C12.6413 1.29902 12.0723 1.1318 11.4919 1.02618C10.6768 0.877864 9.99996 1.56311 9.99996 2.39154L9.99996 7.72487C9.99996 8.5533 10.6715 9.22487 11.5 9.22487L16.8333 9.22487C17.6617 9.22487 18.347 8.54799 18.1987 7.73295C18.093 7.15251 17.9258 6.58353 17.699 6.03585C17.2802 5.0248 16.6663 4.10614 15.8925 3.33232C15.1187 2.5585 14.2 1.94467 13.189 1.52588Z" stroke="#161616" stroke-width="1.5" stroke-linecap="round"/>
</svg>
