<svg width="7" height="12" viewBox="0 0 7 12" fill="none" xmlns="http://www.w3.org/2000/svg">
<path d="M6.69043 6C6.69043 5.72705 6.59521 5.50488 6.37305 5.29541L1.50439 0.534668C1.33936 0.363281 1.13623 0.280762 0.888672 0.280762C0.399902 0.280762 0 0.674316 0 1.16309C0 1.4043 0.101562 1.62646 0.279297 1.8042L4.5957 5.99365L0.279297 10.1958C0.101562 10.3672 0 10.5894 0 10.8369C0 11.3257 0.399902 11.7192 0.888672 11.7192C1.12988 11.7192 1.33936 11.6367 1.50439 11.4653L6.37305 6.70459C6.59521 6.49512 6.69043 6.2666 6.69043 6Z" fill="#868BF1"/>
</svg>
