<svg width="22" height="20" viewBox="0 0 22 20" fill="none" xmlns="http://www.w3.org/2000/svg">
<path d="M3.61798 7.90983C4.0594 6.37042 4.97683 5.01028 6.23879 4.02433C7.50074 3.03839 9.04243 2.47726 10.6429 2.42137C12.2434 2.36548 13.8204 2.8177 15.1481 3.71321C16.4758 4.60873 17.4858 5.90157 18.0336 7.40643" stroke="#161616" stroke-width="1.5" stroke-linecap="round" stroke-linejoin="round"/>
<path d="M17.8938 12.9479C17.3233 14.2999 16.3728 15.4574 15.1576 16.2799C13.9424 17.1025 12.5146 17.5548 11.0474 17.582C9.58023 17.6091 8.13667 17.2101 6.89181 16.4331C5.64694 15.6562 4.65423 14.5347 4.03407 13.2048" stroke="#161616" stroke-width="1.5" stroke-linecap="round" stroke-linejoin="round"/>
<path d="M5.76172 12.4458L3.62259 12.763L2.59289 14.6646" stroke="#161616" stroke-width="1.5" stroke-linecap="round" stroke-linejoin="round"/>
<path d="M16.1113 8.10815L18.2505 7.79094L19.2802 5.88932" stroke="#161616" stroke-width="1.5" stroke-linecap="round" stroke-linejoin="round"/>
</svg>
