<svg width="23" height="20" viewBox="0 0 23 20" fill="none" xmlns="http://www.w3.org/2000/svg">
<path d="M4.11701 7.90995C4.55843 6.37055 5.47586 5.0104 6.73781 4.02445C7.99976 3.03851 9.54146 2.47738 11.1419 2.42149C12.7424 2.3656 14.3195 2.81782 15.6471 3.71334C16.9748 4.60885 17.9849 5.90169 18.5326 7.40655" stroke="#FFFCF1" stroke-width="1.5" stroke-linecap="round" stroke-linejoin="round"/>
<path d="M18.3938 12.9482C17.8233 14.3002 16.8728 15.4576 15.6576 16.2802C14.4424 17.1027 13.0146 17.555 11.5474 17.5822C10.0802 17.6094 8.63667 17.2103 7.39181 16.4334C6.14694 15.6564 5.15423 14.535 4.53407 13.205" stroke="#FFFCF1" stroke-width="1.5" stroke-linecap="round" stroke-linejoin="round"/>
<path d="M6.26172 12.4459L4.12259 12.7631L3.09289 14.6648" stroke="#FFFCF1" stroke-width="1.5" stroke-linecap="round" stroke-linejoin="round"/>
<path d="M16.6113 8.1084L18.7505 7.79119L19.7802 5.88956" stroke="#FFFCF1" stroke-width="1.5" stroke-linecap="round" stroke-linejoin="round"/>
</svg>
